<svg width="50" height="50" viewBox="0 0 50 50" fill="none" xmlns="http://www.w3.org/2000/svg">
<g clip-path="url(#clip0_587_5)">
<mask id="mask0_587_5" style="mask-type:luminance" maskUnits="userSpaceOnUse" x="0" y="0" width="50" height="50">
<path d="M50 0H0V50H50V0Z" fill="white"/>
</mask>
<g mask="url(#mask0_587_5)">
<path d="M2.34789 25.0863C2.34789 37.6434 12.5275 47.823 25.0846 47.823C37.6417 47.823 47.8213 37.6434 47.8213 25.0863C47.8213 12.5292 37.6417 2.34961 25.0846 2.34961C12.5275 2.34961 2.34789 12.5292 2.34789 25.0863Z" stroke="#1954EC" stroke-width="0.5"/>
<path d="M3.98986 25.1965C3.98986 36.8426 13.4309 46.2836 25.077 46.2836C36.723 46.2836 46.1641 36.8426 46.1641 25.1965C46.1641 13.5504 36.723 4.10938 25.077 4.10938C13.4309 4.10938 3.98986 13.5504 3.98986 25.1965Z" fill="url(#paint0_radial_587_5)" fill-opacity="0.2"/>
<mask id="mask1_587_5" style="mask-type:luminance" maskUnits="userSpaceOnUse" x="1" y="2" width="48" height="47">
<path d="M20.4313 3.03838L20.4622 3.18515L20.4313 3.03838C16.0881 3.95505 12.1123 6.13408 9.00291 9.302C5.89352 12.4699 3.78902 16.4857 2.95349 20.8452C2.11797 25.2048 2.58864 29.714 4.30644 33.8072L4.44476 33.7491L4.30644 33.8072C6.02425 37.9002 8.91266 41.3948 12.6092 43.8523L12.6922 43.7274L12.6092 43.8523C16.2642 46.2821 20.5482 47.5911 24.9347 47.6203V48.023C20.4689 47.9938 16.1073 46.6613 12.3863 44.1876C8.6237 41.6862 5.68366 38.1291 3.93517 33.963C2.18666 29.7967 1.70759 25.2069 2.55804 20.7694C3.40849 16.332 5.55059 12.2445 8.71555 9.01995C11.8805 5.79542 15.9273 3.57746 20.3481 2.64442C24.769 1.71136 29.3669 2.10476 33.5651 3.77527C37.7631 5.44578 41.3743 8.31897 43.9455 12.0343C46.4882 15.7084 47.9018 20.0444 48.0143 24.509L47.6116 24.5165C47.5007 20.1312 46.112 15.8724 43.6144 12.2634C41.0884 8.61332 37.5406 5.79057 33.4162 4.14939C29.2918 2.50821 24.7746 2.12171 20.4313 3.03838Z" fill="white" stroke="white" stroke-width="0.3"/>
</mask>
<g mask="url(#mask1_587_5)">
<path d="M20.4106 2.94054L20.4622 3.18515L20.4106 2.94054C16.0481 3.86128 12.0547 6.04997 8.93154 9.23195C5.80835 12.4139 3.69451 16.4475 2.85527 20.8264L3.10009 20.8733L2.85527 20.8264C2.01605 25.2053 2.48881 29.7345 4.21423 33.8459L4.44476 33.7491L4.21423 33.8459C5.93966 37.9571 8.8409 41.4671 12.5538 43.9356L12.6922 43.7274L12.5538 43.9356C16.1974 46.3578 20.4634 47.6712 24.8347 47.7194V47.9221C20.4235 47.8739 16.1185 46.5487 12.4417 44.1043C8.69547 41.6138 5.76825 38.0723 4.02738 33.9243C2.2865 29.7762 1.80951 25.2064 2.65625 20.7883C3.503 16.3701 5.63576 12.3005 8.78691 9.09C11.9381 5.87953 15.9673 3.67124 20.3688 2.74226C24.7704 1.81327 29.3483 2.20496 33.5281 3.86818C37.7079 5.53141 41.3033 8.39207 43.8633 12.0912C46.3758 15.7217 47.781 20.0013 47.9116 24.4109L47.7089 24.4147C47.5791 20.045 46.1865 15.8043 43.6966 12.2065C41.1594 8.54022 37.5958 5.70494 33.4532 4.05647C29.3105 2.40802 24.7732 2.0198 20.4106 2.94054Z" stroke="white" stroke-width="0.5"/>
</g>
<path d="M24 47.5C24 48.3284 24.6716 49 25.5 49C26.3284 49 27 48.3284 27 47.5C27 46.6716 26.3284 46 25.5 46C24.6716 46 24 46.6716 24 47.5Z" fill="white"/>
</g>
</g>
<defs>
<radialGradient id="paint0_radial_587_5" cx="0" cy="0" r="1" gradientUnits="userSpaceOnUse" gradientTransform="translate(25.077 25.1965) rotate(180) scale(21.0871)">
<stop stop-color="#1954EC"/>
<stop offset="1" stop-color="#1D1D25"/>
</radialGradient>
<clipPath id="clip0_587_5">
<rect width="50" height="50" fill="white"/>
</clipPath>
</defs>
</svg>
