<svg width="274" height="274" viewBox="0 0 274 274" fill="none" xmlns="http://www.w3.org/2000/svg">
<g clip-path="url(#clip0_587_5)">
<mask id="mask0_587_5" style="mask-type:luminance" maskUnits="userSpaceOnUse" x="0" y="0" width="274" height="274">
<path d="M274 0H0V274H274V0Z" fill="white"/>
</mask>
<g mask="url(#mask0_587_5)">
<path d="M12.8692 137.474C12.8692 206.287 68.6533 262.071 137.466 262.071C206.279 262.071 262.063 206.287 262.063 137.474C262.063 68.661 206.279 12.877 137.466 12.877C68.6533 12.877 12.8692 68.661 12.8692 137.474Z" stroke="#1954EC" stroke-width="2.74"/>
<path d="M21.8678 138.073C21.8678 201.893 73.6046 253.63 137.425 253.63C201.246 253.63 252.982 201.893 252.982 138.073C252.982 74.2524 201.246 22.5156 137.425 22.5156C73.6046 22.5156 21.8678 74.2524 21.8678 138.073Z" fill="url(#paint0_radial_587_5)" fill-opacity="0.2"/>
<mask id="mask1_587_5" style="mask-type:luminance" maskUnits="userSpaceOnUse" x="10" y="10" width="254" height="254">
<path d="M69.1042 240.316L69.5593 239.631L69.1042 240.316C89.1334 253.631 112.61 260.804 136.648 260.964V263.171C112.175 263.011 88.274 255.709 67.8827 242.153C47.2636 228.445 31.1523 208.952 21.5705 186.122C11.9887 163.291 9.36336 138.139 14.0238 113.821C18.6843 89.504 30.423 67.1047 47.767 49.4342C65.1109 31.7637 87.2876 19.6093 111.513 14.4962C135.74 9.38308 160.937 11.539 183.942 20.6933C206.948 29.8477 226.737 45.5928 240.827 65.9526C254.761 86.0871 262.508 109.848 263.124 134.314L260.917 134.356C260.309 110.324 252.7 86.9857 239.013 67.2085C225.17 47.2059 205.728 31.7372 183.127 22.7435C160.525 13.7499 135.77 11.6318 111.969 16.6552C88.1683 21.6785 66.3811 33.6196 49.3417 50.9798C32.3023 68.34 20.7696 90.3462 16.1909 114.236C11.6122 138.127 14.1915 162.838 23.6051 185.268C33.0187 207.698 48.8472 226.848 69.1042 240.316Z" fill="white" stroke="white" stroke-width="1.644"/>
</mask>
<g mask="url(#mask1_587_5)">
<path d="M111.856 16.119L112.139 17.4595L111.856 16.119C87.9495 21.1646 66.0657 33.1587 48.9506 50.5959C31.8355 68.0332 20.2517 90.1371 15.6527 114.133C11.0537 138.13 13.6444 162.95 23.0998 185.48C32.5551 208.01 48.4539 227.245 68.8008 240.772L69.5593 239.631L68.8008 240.772C88.7677 254.046 112.145 261.243 136.1 261.507V262.618C111.927 262.354 88.3352 255.092 68.186 241.697C47.6569 228.048 31.6158 208.641 22.0758 185.91C12.5358 163.178 9.92188 138.136 14.562 113.925C19.2022 89.7132 30.8897 67.4115 48.1581 49.818C65.4264 32.2246 87.5063 20.1232 111.627 15.0324C135.747 9.94156 160.834 12.088 183.74 21.2025C206.645 30.3169 226.348 45.9934 240.377 66.2645C254.145 86.1599 261.846 109.612 262.561 133.777L261.45 133.798C260.739 109.851 253.108 86.6123 239.463 66.8967C225.559 46.8052 206.031 31.2679 183.329 22.2343C160.627 13.2008 135.763 11.0733 111.856 16.119Z" stroke="white" stroke-width="2.74"/>
</g>
<path d="M132 262.259C132 264.611 133.907 266.518 136.259 266.518C138.612 266.518 140.519 264.611 140.519 262.259C140.519 259.907 138.612 258 136.259 258C133.907 258 132 259.907 132 262.259Z" fill="white"/>
</g>
</g>
<defs>
<radialGradient id="paint0_radial_587_5" cx="0" cy="0" r="1" gradientUnits="userSpaceOnUse" gradientTransform="translate(137.425 138.073) rotate(180) scale(115.557)">
<stop stop-color="#1954EC"/>
<stop offset="1" stop-color="#1D1D25"/>
</radialGradient>
<clipPath id="clip0_587_5">
<rect width="274" height="274" fill="white"/>
</clipPath>
</defs>
</svg>
