<svg width="350" height="350" viewBox="0 0 350 350" fill="none" xmlns="http://www.w3.org/2000/svg">
<g clip-path="url(#clip0_595_22)">
<mask id="mask0_595_22" style="mask-type:luminance" maskUnits="userSpaceOnUse" x="0" y="0" width="350" height="350">
<path d="M350 0H0V350H350V0Z" fill="white"/>
</mask>
<g mask="url(#mask0_595_22)">
<path d="M5.10959 175.639C5.10959 269.819 81.4581 346.168 175.639 346.168C269.819 346.168 346.168 269.819 346.168 175.639C346.168 81.4579 269.819 5.10938 175.639 5.10938C81.4581 5.10938 5.10959 81.4579 5.10959 175.639Z" fill="url(#paint0_radial_595_22)"/>
<path d="M38 175C38 248.454 99.1131 308 174.5 308C249.887 308 311 248.454 311 175C311 101.546 249.887 42 174.5 42C99.1131 42 38 101.546 38 175Z" stroke="#1954EC" stroke-width="2.446"/>
<path d="M99.8287 284.52L100.163 284.008L99.8287 284.52C121.79 298.866 147.544 306.57 173.904 306.687V309.608C146.95 309.491 120.617 301.614 98.1631 286.946C75.5408 272.167 57.8657 251.153 47.3544 226.543C36.8431 201.932 33.9633 174.82 39.0757 148.608C44.1881 122.395 57.0655 98.2489 76.0936 79.1992C95.1217 60.1494 119.453 47.0451 146.035 41.5322C172.617 36.0193 200.263 38.3438 225.506 48.2137C250.747 58.0835 272.458 75.0584 287.916 97.0066C303.255 118.787 311.759 144.503 312.383 170.972L309.389 171.027C308.777 145.128 300.456 119.969 285.448 98.6606C270.324 77.1851 249.083 60.5791 224.392 50.9245C199.701 41.27 172.658 38.9965 146.657 44.3889C120.656 49.7812 96.8541 62.5997 78.2376 81.2373C59.621 99.875 47.0197 123.502 42.0166 149.153C37.0135 174.805 39.832 201.337 50.1178 225.42C60.4035 249.502 77.6978 270.062 99.8287 284.52Z" fill="white" stroke="#1D1D25" stroke-width="1.22207"/>
<path d="M172 308.193C172 309.957 173.43 311.387 175.193 311.387C176.957 311.387 178.387 309.957 178.387 308.193C178.387 306.43 176.957 305 175.193 305C173.43 305 172 306.43 172 308.193Z" fill="white"/>
</g>
</g>
<defs>
<radialGradient id="paint0_radial_595_22" cx="0" cy="0" r="1" gradientUnits="userSpaceOnUse" gradientTransform="translate(175.639 175.639) rotate(180) scale(170.529)">
<stop stop-color="#1954EC"/>
<stop offset="0.0001" stop-color="#194FD9"/>
<stop offset="1" stop-color="#1D1D25"/>
</radialGradient>
<clipPath id="clip0_595_22">
<rect width="350" height="350" fill="white"/>
</clipPath>
</defs>
</svg>
