<svg width="3907" height="3907" viewBox="0 0 3907 3907" fill="none" xmlns="http://www.w3.org/2000/svg">
<path d="M339.737 1924.59C339.737 2815.88 1062.27 3538.41 1953.55 3538.41C2844.84 3538.41 3567.37 2815.88 3567.37 1924.59C3567.37 1033.31 2844.84 310.777 1953.55 310.777C1062.27 310.777 339.737 1033.31 339.737 1924.59Z" stroke="#1954EC" stroke-width="43.2796"/>
<path d="M456.201 1932.41C456.201 2759.03 1126.31 3429.14 1952.93 3429.14C2779.55 3429.14 3449.66 2759.03 3449.66 1932.41C3449.66 1105.79 2779.55 435.682 1952.93 435.682C1126.31 435.682 456.201 1105.79 456.201 1932.41Z" fill="url(#paint0_radial_588_21)" fill-opacity="0.2"/>
<path d="M1622.93 357.677L1625.56 370.12L1622.93 357.677C1314.26 422.825 1031.7 577.689 810.717 802.834C589.732 1027.98 440.164 1313.38 380.783 1623.21C321.402 1933.05 354.853 2253.52 476.938 2544.42L488.664 2539.5L476.938 2544.42C599.023 2835.32 804.303 3083.68 1067.02 3258.34L1074.06 3247.75L1067.02 3258.34C1326.21 3430.64 1629.9 3523.65 1940.94 3526.11V3550.56C1625.09 3548.09 1316.69 3453.66 1053.49 3278.69C786.764 3101.36 578.351 2849.21 454.403 2553.88C330.454 2258.54 296.493 1933.18 356.78 1618.62C417.068 1304.05 568.917 1014.3 793.275 785.716C1017.63 557.134 1304.51 399.907 1617.89 333.765C1931.28 267.622 2257.22 295.51 2554.81 413.929C2852.41 532.349 3108.4 736.024 3290.66 999.395C3470.52 1259.28 3570.68 1565.87 3579.04 1881.63L3554.6 1882.08C3546.33 1571.14 3447.69 1269.23 3270.57 1013.31C3091.04 753.89 2838.9 553.276 2545.78 436.637C2252.66 319.998 1931.62 292.529 1622.93 357.677Z" stroke="white" stroke-width="25.4338" stroke-miterlimit="16"/>
<path d="M1876.53 3550.99C1876.53 3590.19 1908.31 3621.97 1947.51 3621.97C1986.71 3621.97 2018.49 3590.19 2018.49 3550.99C2018.49 3511.79 1986.71 3480.01 1947.51 3480.01C1908.31 3480.01 1876.53 3511.79 1876.53 3550.99Z" fill="white"/>
<defs>
<radialGradient id="paint0_radial_588_21" cx="0" cy="0" r="1" gradientUnits="userSpaceOnUse" gradientTransform="translate(1952.93 1932.41) rotate(180) scale(1496.73)">
<stop stop-color="#1954EC"/>
<stop offset="1" stop-color="#1D1D25"/>
</radialGradient>
</defs>
</svg>
