<svg width="274" height="274" viewBox="0 0 274 274" fill="none" xmlns="http://www.w3.org/2000/svg">
<g clip-path="url(#clip0_587_5)">
<mask id="mask0_587_5" style="mask-type:luminance" maskUnits="userSpaceOnUse" x="0" y="0" width="274" height="274">
<path d="M274 0H0V274H274V0Z" fill="white"/>
</mask>
<g mask="url(#mask0_587_5)">
<path d="M12.8692 137.474C12.8692 206.287 68.6533 262.071 137.466 262.071C206.279 262.071 262.063 206.287 262.063 137.474C262.063 68.661 206.279 12.877 137.466 12.877C68.6533 12.877 12.8692 68.661 12.8692 137.474Z" stroke="#1954EC" stroke-width="2"/>
<path d="M14.9997 136.566C14.9997 203.705 69.4267 258.132 136.566 258.132C203.705 258.132 258.132 203.705 258.132 136.566C258.132 69.427 203.705 15 136.566 15C69.4267 15 14.9997 69.427 14.9997 136.566Z" fill="url(#paint0_radial_587_5)" fill-opacity="0.8"/>
<path d="M137.47 263.996C112.549 263.996 88.182 256.635 67.4276 242.837C46.6737 229.04 30.457 209.42 20.8126 186.44C11.1681 163.46 8.52557 138.143 13.2165 113.667C17.9075 89.1903 29.723 66.6444 47.1803 48.8584C64.6377 31.0724 86.9594 18.8385 111.344 13.692C135.729 8.54536 161.09 10.7153 184.246 19.9296C207.402 29.1438 227.321 44.9919 241.503 65.4849C255.685 85.9779 263.499 110.203 263.964 135.121L260.114 135.193C259.663 111.034 252.088 87.5457 238.337 67.6763C224.586 47.8068 205.274 32.4411 182.823 23.5072C160.372 14.5735 135.782 12.4695 112.139 17.4595C88.4965 22.4494 66.8544 34.311 49.9283 51.5556C33.0023 68.8003 21.5464 90.66 16.9982 114.391C12.45 138.123 15.0121 162.669 24.363 184.95C33.714 207.231 49.4371 226.253 69.5593 239.631C89.6819 253.008 113.307 260.145 137.47 260.145V263.996Z" fill="white"/>
<path d="M16.5071 114.297L16.9982 114.391L16.5071 114.297C11.9404 138.125 14.513 162.772 23.902 185.143C33.291 207.515 49.0783 226.615 69.2825 240.047C89.3482 253.387 112.883 260.546 136.97 260.644V263.495C112.321 263.397 88.238 256.072 67.7044 242.421C47.0326 228.678 30.8799 209.135 21.2736 186.246C11.6672 163.357 9.03517 138.14 13.7076 113.761C18.38 89.3811 30.1488 66.9244 47.5372 49.2086C64.9255 31.4929 87.159 19.3074 111.447 14.1812C135.736 9.05493 160.997 11.2163 184.062 20.3941C207.126 29.572 226.966 45.3574 241.092 65.7694C255.123 86.0444 262.896 109.987 263.454 134.63L260.603 134.683C260.057 110.602 252.46 87.2051 238.748 67.3918C224.941 47.4413 205.55 32.0129 183.008 23.0427C160.465 14.0725 135.775 11.96 112.036 16.9702C88.2969 21.9805 66.5665 33.8904 49.5715 51.2053C32.5765 68.5203 21.0739 90.4691 16.5071 114.297Z" stroke="black" stroke-opacity="0.42"/>
<path d="M132 262.259C132 264.611 133.907 266.518 136.259 266.518C138.612 266.518 140.519 264.611 140.519 262.259C140.519 259.907 138.612 258 136.259 258C133.907 258 132 259.907 132 262.259Z" fill="white"/>
</g>
</g>
<defs>
<radialGradient id="paint0_radial_587_5" cx="0" cy="0" r="1" gradientUnits="userSpaceOnUse" gradientTransform="translate(136.566 136.566) rotate(180) scale(121.566)">
<stop stop-color="#1954EC"/>
<stop offset="1" stop-color="#1D1D25"/>
</radialGradient>
<clipPath id="clip0_587_5">
<rect width="274" height="274" fill="white"/>
</clipPath>
</defs>
</svg>
