<svg width="350" height="350" viewBox="0 0 350 350" fill="none" xmlns="http://www.w3.org/2000/svg">
<g clip-path="url(#clip0_595_22)">
<mask id="mask0_595_22" style="mask-type:luminance" maskUnits="userSpaceOnUse" x="0" y="0" width="350" height="350">
<path d="M350 0H0V350H350V0Z" fill="white"/>
</mask>
<g mask="url(#mask0_595_22)">
<path d="M5.10959 175.639C5.10959 269.819 81.4581 346.168 175.639 346.168C269.819 346.168 346.168 269.819 346.168 175.639C346.168 81.4579 269.819 5.10938 175.639 5.10938C81.4581 5.10938 5.10959 81.4579 5.10959 175.639Z" fill="url(#paint0_radial_595_22)"/>
<path d="M65.5952 175.301C65.5952 233.903 114.352 281.41 174.497 281.41C234.642 281.41 283.398 233.903 283.398 175.301C283.398 116.698 234.642 69.1914 174.497 69.1914C114.352 69.1914 65.5952 116.698 65.5952 175.301Z" stroke="#1954EC" stroke-width="1.95146"/>
<path d="M114.923 262.677L115.19 262.269L114.923 262.677C132.445 274.122 152.991 280.269 174.022 280.363V282.693C152.517 282.599 131.508 276.315 113.595 264.613C95.5462 252.822 81.4447 236.057 73.0587 216.422C64.6726 196.787 62.3751 175.157 66.4538 154.244C70.5326 133.332 80.8063 114.067 95.9872 98.8693C111.168 83.6711 130.58 73.2163 151.787 68.8181C172.995 64.4198 195.052 66.2743 215.19 74.1486C235.328 82.0229 252.65 95.5658 264.982 113.076C277.22 130.453 284.004 150.97 284.502 172.087L282.114 172.131C281.625 151.468 274.986 131.396 263.014 114.396C250.947 97.2625 234.001 84.0139 214.302 76.3114C194.603 68.6089 173.028 66.795 152.284 71.0971C131.54 75.3992 112.55 85.626 97.6977 100.495C82.8452 115.365 72.7917 134.215 68.8001 154.679C64.8086 175.145 67.0572 196.312 75.2634 215.526C83.4695 234.74 97.2671 251.142 114.923 262.677Z" fill="white" stroke="#1D1D25" stroke-width="0.974982"/>
<path d="M172 281.193C172 282.957 173.43 284.387 175.193 284.387C176.957 284.387 178.387 282.957 178.387 281.193C178.387 279.43 176.957 278 175.193 278C173.43 278 172 279.43 172 281.193Z" fill="white"/>
</g>
</g>
<defs>
<radialGradient id="paint0_radial_595_22" cx="0" cy="0" r="1" gradientUnits="userSpaceOnUse" gradientTransform="translate(175.639 175.639) rotate(180) scale(170.529)">
<stop stop-color="#1954EC"/>
<stop offset="0.0001" stop-color="#194FD9"/>
<stop offset="1" stop-color="#1D1D25"/>
</radialGradient>
<clipPath id="clip0_595_22">
<rect width="350" height="350" fill="white"/>
</clipPath>
</defs>
</svg>
