<svg width="3907" height="3907" viewBox="0 0 3907 3907" fill="none" xmlns="http://www.w3.org/2000/svg">
<path d="M340.182 1924.59C340.182 2815.88 1075.71 3538.41 1983.02 3538.41C2890.33 3538.41 3625.86 2815.88 3625.86 1924.59C3625.86 1033.31 2890.33 310.777 1983.02 310.777C1075.71 310.777 340.182 1033.31 340.182 1924.59Z" stroke="#1954EC" stroke-width="43.2796"/>
<path d="M458.74 1932.41C458.74 2759.03 1140.9 3429.14 1982.39 3429.14C2823.87 3429.14 3506.03 2759.03 3506.03 1932.41C3506.03 1105.79 2823.87 435.682 1982.39 435.682C1140.9 435.682 458.74 1105.79 458.74 1932.41Z" fill="url(#paint0_radial_588_21)" fill-opacity="0.2"/>
<path d="M382.198 1623.17L394.606 1625.59L382.198 1623.17C321.741 1933.06 355.8 2253.57 480.092 2544.5L491.787 2539.5L480.092 2544.5C604.383 2835.42 813.357 3083.76 1080.75 3258.4L1087.71 3247.75L1080.75 3258.4C1344.62 3430.71 1653.79 3523.69 1970.41 3526.12V3550.56C1648.7 3548.13 1334.59 3453.68 1066.55 3278.63C794.993 3101.28 582.833 2849.11 456.667 2553.81C330.501 2258.49 295.937 1933.18 357.299 1618.66C418.662 1304.14 573.226 1014.39 801.633 785.796C1030.04 557.198 1322.12 399.934 1641.23 333.774C1960.34 267.614 2292.23 295.511 2595.25 413.958C2898.26 532.404 3158.88 736.112 3344.42 999.482C3527.51 1259.36 3629.45 1565.92 3637.96 1881.62L3612.63 1882.09C3604.21 1571.09 3503.77 1269.15 3323.47 1013.22C3140.71 753.802 2884.06 553.221 2585.74 436.608C2287.42 319.997 1960.69 292.538 1646.55 357.668C1332.41 422.798 1044.82 577.626 819.874 802.754C594.929 1027.89 442.656 1313.29 382.198 1623.17Z" stroke="white" stroke-width="25.4338" stroke-miterlimit="16"/>
<path d="M1904.61 3550.99C1904.61 3590.19 1936.96 3621.97 1976.86 3621.97C2016.77 3621.97 2049.12 3590.19 2049.12 3550.99C2049.12 3511.79 2016.77 3480.01 1976.86 3480.01C1936.96 3480.01 1904.61 3511.79 1904.61 3550.99Z" fill="white"/>
<defs>
<radialGradient id="paint0_radial_588_21" cx="0" cy="0" r="1" gradientUnits="userSpaceOnUse" gradientTransform="translate(1982.39 1932.41) rotate(180) scale(1523.65 1496.73)">
<stop stop-color="#1954EC"/>
<stop offset="1" stop-color="#1D1D25"/>
</radialGradient>
</defs>
</svg>
