<svg width="274" height="274" viewBox="0 0 274 274" fill="none" xmlns="http://www.w3.org/2000/svg">
<g clip-path="url(#clip0_587_5)">
<mask id="mask0_587_5" style="mask-type:luminance" maskUnits="userSpaceOnUse" x="0" y="0" width="274" height="274">
<path d="M274 0H0V274H274V0Z" fill="white"/>
</mask>
<g mask="url(#mask0_587_5)">
<path d="M4 137.5C4 211.23 63.77 271 137.5 271C211.23 271 271 211.23 271 137.5C271 63.77 211.23 4 137.5 4C63.77 4 4 63.77 4 137.5Z" fill="url(#paint0_radial_587_5)"/>
<path d="M12.8692 137.476C12.8692 206.289 68.6533 262.073 137.466 262.073C206.279 262.073 262.063 206.289 262.063 137.476C262.063 68.6629 206.279 12.8789 137.466 12.8789C68.6533 12.8789 12.8692 68.6629 12.8692 137.476Z" stroke="#1954EC" stroke-width="2"/>
<path d="M23.902 185.143L24.3574 184.952L23.902 185.143C33.291 207.515 49.0783 226.615 69.2825 240.047L69.5066 239.71L69.2825 240.047C89.3482 253.387 112.883 260.546 136.97 260.644V263.495C112.321 263.397 88.238 256.072 67.7044 242.421C47.0326 228.678 30.8799 209.135 21.2736 186.246C11.6672 163.357 9.03517 138.14 13.7076 113.761C18.38 89.3811 30.1488 66.9244 47.5372 49.2086C64.9255 31.4929 87.159 19.3074 111.447 14.1812C135.736 9.05493 160.997 11.2163 184.062 20.3941C207.126 29.572 226.966 45.3574 241.092 65.7694C255.123 86.0444 262.896 109.987 263.454 134.63L260.603 134.683C260.057 110.602 252.46 87.2051 238.748 67.3918C224.941 47.4413 205.55 32.0129 183.008 23.0427C160.465 14.0725 135.775 11.96 112.036 16.9702C88.2969 21.9805 66.5665 33.8904 49.5715 51.2053C32.5765 68.5203 21.0739 90.4691 16.5071 114.297C11.9404 138.125 14.513 162.772 23.902 185.143Z" fill="white" stroke="black"/>
<path d="M136 262.5C136 263.881 137.119 265 138.5 265C139.881 265 141 263.881 141 262.5C141 261.119 139.881 260 138.5 260C137.119 260 136 261.119 136 262.5Z" fill="white"/>
</g>
</g>
<defs>
<radialGradient id="paint0_radial_587_5" cx="0" cy="0" r="1" gradientUnits="userSpaceOnUse" gradientTransform="translate(137.5 137.5) rotate(180) scale(133.5)">
<stop stop-color="#1954EC"/>
<stop offset="1" stop-color="#1D1D25"/>
</radialGradient>
<clipPath id="clip0_587_5">
<rect width="274" height="274" fill="white"/>
</clipPath>
</defs>
</svg>
