<svg width="3907" height="3907" viewBox="0 0 3907 3907" fill="none" xmlns="http://www.w3.org/2000/svg">
<path d="M340.182 1953.59C340.182 2844.88 1075.71 3567.41 1983.02 3567.41C2890.33 3567.41 3625.86 2844.88 3625.86 1953.59C3625.86 1062.31 2890.33 339.777 1983.02 339.777C1075.71 339.777 340.182 1062.31 340.182 1953.59Z" stroke="#1954EC" stroke-width="43.2796"/>
<path d="M458.74 1961.41C458.74 2788.03 1140.9 3458.14 1982.39 3458.14C2823.87 3458.14 3506.03 2788.03 3506.03 1961.41C3506.03 1134.79 2823.87 464.682 1982.39 464.682C1140.9 464.682 458.74 1134.79 458.74 1961.41Z" fill="url(#paint0_radial_588_21)" fill-opacity="0.2"/>
<path d="M382.198 1652.17L394.606 1654.59L382.198 1652.17C321.741 1962.06 355.8 2282.57 480.092 2573.5L491.787 2568.5L480.092 2573.5C604.383 2864.42 813.357 3112.76 1080.75 3287.4L1087.71 3276.75L1080.75 3287.4C1344.62 3459.71 1653.79 3552.69 1970.41 3555.12V3579.56C1648.7 3577.13 1334.59 3482.68 1066.55 3307.63C794.993 3130.28 582.833 2878.11 456.667 2582.81C330.501 2287.49 295.937 1962.18 357.299 1647.66C418.662 1333.14 573.226 1043.39 801.633 814.796C1030.04 586.198 1322.12 428.934 1641.23 362.774C1960.34 296.614 2292.23 324.511 2595.25 442.958C2898.26 561.404 3158.88 765.112 3344.42 1028.48C3527.51 1288.36 3629.45 1594.92 3637.96 1910.62L3612.63 1911.09C3604.21 1600.09 3503.77 1298.15 3323.47 1042.22C3140.71 782.802 2884.06 582.221 2585.74 465.608C2287.42 348.997 1960.69 321.538 1646.55 386.668C1332.41 451.798 1044.82 606.626 819.874 831.754C594.929 1056.89 442.656 1342.29 382.198 1652.17Z" stroke="white" stroke-width="25.4338" stroke-miterlimit="16"/>
<path d="M1904.61 3579.99C1904.61 3619.19 1936.96 3650.97 1976.86 3650.97C2016.77 3650.97 2049.12 3619.19 2049.12 3579.99C2049.12 3540.79 2016.77 3509.01 1976.86 3509.01C1936.96 3509.01 1904.61 3540.79 1904.61 3579.99Z" fill="white"/>
<defs>
<radialGradient id="paint0_radial_588_21" cx="0" cy="0" r="1" gradientUnits="userSpaceOnUse" gradientTransform="translate(1982.39 1961.41) rotate(180) scale(1523.65 1496.73)">
<stop stop-color="#1954EC"/>
<stop offset="1" stop-color="#1D1D25"/>
</radialGradient>
</defs>
</svg>
